<svg width="300" height="299" viewBox="0 0 300 299" fill="none" xmlns="http://www.w3.org/2000/svg">
<ellipse cx="150" cy="149.5" rx="150" ry="149.5" fill="#A1CCFF"/>
<path d="M150 117C131.777 117 117 131.777 117 150C117 168.223 131.777 183 150 183C168.223 183 183 168.223 183 150C183 131.777 168.223 117 150 117ZM164.667 153.667H153.667V165.143C153.667 166.903 152.237 168.37 150.44 168.37H149.523C147.763 168.333 146.333 166.903 146.333 165.143V153.667H135.333C133.317 153.667 131.667 152.017 131.667 150C131.667 147.983 133.317 146.333 135.333 146.333H146.333V134.893C146.333 133.097 147.763 131.667 149.56 131.667H150.477C152.237 131.667 153.667 133.097 153.667 134.893V146.333H164.667C166.683 146.333 168.333 147.983 168.333 150C168.333 152.017 166.683 153.667 164.667 153.667Z" fill="white"/>
<path d="M107.11 209.44H105.805V207H98.6611V209.447H97.3486L97.3418 205.927H98.1553C98.5837 205.444 98.9232 204.797 99.1738 203.985C99.429 203.17 99.5885 202.276 99.6523 201.306L99.8711 197.047H105.825V205.927H107.124L107.11 209.44ZM99.6523 205.927H104.506V198.127H101.136L100.992 201.053C100.933 202.197 100.78 203.172 100.534 203.979C100.293 204.785 99.9987 205.435 99.6523 205.927ZM108.149 203.233C108.149 202.509 108.291 201.857 108.573 201.278C108.86 200.7 109.257 200.253 109.763 199.938C110.273 199.624 110.854 199.467 111.506 199.467C112.513 199.467 113.326 199.815 113.946 200.513C114.571 201.21 114.883 202.137 114.883 203.295V203.384C114.883 204.104 114.744 204.751 114.466 205.325C114.192 205.895 113.798 206.339 113.283 206.658C112.773 206.977 112.185 207.137 111.52 207.137C110.517 207.137 109.703 206.788 109.079 206.091C108.459 205.394 108.149 204.471 108.149 203.322V203.233ZM109.421 203.384C109.421 204.204 109.61 204.863 109.988 205.359C110.371 205.856 110.882 206.104 111.52 206.104C112.162 206.104 112.673 205.854 113.051 205.353C113.429 204.847 113.618 204.14 113.618 203.233C113.618 202.422 113.424 201.766 113.037 201.265C112.654 200.759 112.144 200.506 111.506 200.506C110.882 200.506 110.378 200.754 109.995 201.251C109.612 201.748 109.421 202.459 109.421 203.384ZM119.716 200.027C120.646 200.027 121.388 200.34 121.944 200.964C122.505 201.584 122.785 202.402 122.785 203.418V203.534C122.785 204.231 122.651 204.856 122.382 205.407C122.113 205.954 121.726 206.38 121.22 206.686C120.718 206.986 120.14 207.137 119.483 207.137C118.49 207.137 117.69 206.806 117.084 206.146C116.478 205.48 116.175 204.589 116.175 203.473V202.857C116.175 201.303 116.462 200.068 117.036 199.152C117.615 198.236 118.467 197.678 119.593 197.478C120.231 197.364 120.661 197.225 120.885 197.061C121.108 196.896 121.22 196.671 121.22 196.384H122.259C122.259 196.953 122.129 197.398 121.869 197.717C121.614 198.036 121.204 198.261 120.639 198.394L119.695 198.605C118.943 198.783 118.378 199.084 118 199.508C117.626 199.927 117.382 200.488 117.269 201.189C117.938 200.415 118.754 200.027 119.716 200.027ZM119.47 201.066C118.85 201.066 118.358 201.276 117.993 201.695C117.629 202.11 117.446 202.687 117.446 203.425V203.534C117.446 204.327 117.629 204.956 117.993 205.421C118.362 205.881 118.859 206.111 119.483 206.111C120.112 206.111 120.609 205.879 120.974 205.414C121.338 204.949 121.521 204.27 121.521 203.377C121.521 202.68 121.336 202.121 120.967 201.702C120.602 201.278 120.103 201.066 119.47 201.066ZM128.773 207C128.701 206.854 128.641 206.594 128.596 206.221C128.008 206.831 127.306 207.137 126.49 207.137C125.761 207.137 125.162 206.932 124.692 206.521C124.228 206.107 123.995 205.583 123.995 204.949C123.995 204.179 124.287 203.582 124.87 203.158C125.458 202.73 126.283 202.516 127.345 202.516H128.575V201.935C128.575 201.493 128.443 201.142 128.179 200.882C127.914 200.618 127.525 200.485 127.01 200.485C126.559 200.485 126.18 200.599 125.875 200.827C125.57 201.055 125.417 201.331 125.417 201.654H124.146C124.146 201.285 124.275 200.93 124.535 200.588C124.799 200.242 125.155 199.968 125.602 199.768C126.053 199.567 126.547 199.467 127.085 199.467C127.937 199.467 128.605 199.681 129.088 200.109C129.571 200.533 129.822 201.119 129.84 201.866V205.271C129.84 205.95 129.926 206.49 130.1 206.891V207H128.773ZM126.675 206.036C127.071 206.036 127.447 205.934 127.803 205.729C128.158 205.523 128.416 205.257 128.575 204.929V203.411H127.584C126.035 203.411 125.26 203.865 125.26 204.771C125.26 205.168 125.392 205.478 125.656 205.701C125.921 205.924 126.26 206.036 126.675 206.036ZM131.938 207V199.604H134.823C135.808 199.604 136.562 199.777 137.086 200.123C137.615 200.465 137.879 200.968 137.879 201.634C137.879 201.976 137.776 202.285 137.571 202.563C137.366 202.837 137.063 203.047 136.662 203.192C137.109 203.297 137.466 203.502 137.735 203.808C138.009 204.113 138.146 204.478 138.146 204.901C138.146 205.58 137.895 206.1 137.394 206.46C136.897 206.82 136.193 207 135.281 207H131.938ZM133.203 203.753V205.981H135.295C135.824 205.981 136.218 205.883 136.478 205.688C136.742 205.492 136.874 205.216 136.874 204.86C136.874 204.122 136.332 203.753 135.247 203.753H133.203ZM133.203 202.741H134.837C136.022 202.741 136.614 202.395 136.614 201.702C136.614 201.009 136.054 200.652 134.933 200.629H133.203V202.741ZM144.605 199.604H145.87V207H144.605V201.606L141.194 207H139.93V199.604H141.194V205.004L144.605 199.604ZM153.396 200.629H150.915V207H149.65V200.629H147.217V199.604H153.396V200.629ZM156.008 202.153H157.929C158.767 202.162 159.43 202.381 159.918 202.81C160.406 203.238 160.649 203.819 160.649 204.553C160.649 205.291 160.399 205.883 159.897 206.33C159.396 206.777 158.722 207 157.874 207H154.743V199.604H156.008V202.153ZM156.008 203.186V205.968H157.888C158.362 205.968 158.729 205.847 158.988 205.605C159.248 205.359 159.378 205.024 159.378 204.601C159.378 204.19 159.25 203.855 158.995 203.596C158.744 203.331 158.391 203.195 157.936 203.186H156.008ZM165.428 203.438C165.428 202.203 165.667 201.233 166.146 200.526C166.624 199.82 167.28 199.467 168.114 199.467C168.502 199.467 168.841 199.533 169.133 199.665V196.5H170.397V199.706C170.716 199.547 171.09 199.467 171.519 199.467C172.357 199.467 173.016 199.82 173.494 200.526C173.973 201.233 174.212 202.251 174.212 203.582C174.212 204.671 173.973 205.537 173.494 206.18C173.02 206.822 172.366 207.144 171.532 207.144C171.09 207.144 170.712 207.071 170.397 206.925V209.844H169.133V206.945C168.832 207.077 168.488 207.144 168.101 207.144C167.271 207.144 166.617 206.822 166.139 206.18C165.665 205.537 165.428 204.658 165.428 203.541V203.438ZM172.947 203.438C172.947 202.509 172.788 201.789 172.469 201.278C172.15 200.763 171.71 200.506 171.149 200.506C170.862 200.506 170.612 200.551 170.397 200.643V205.995C170.603 206.073 170.858 206.111 171.163 206.111C171.728 206.111 172.166 205.893 172.476 205.455C172.79 205.018 172.947 204.345 172.947 203.438ZM166.692 203.582C166.692 204.411 166.84 205.04 167.137 205.469C167.433 205.897 167.859 206.111 168.415 206.111C168.679 206.111 168.919 206.07 169.133 205.988V200.622C168.941 200.545 168.707 200.506 168.429 200.506C167.873 200.506 167.444 200.754 167.144 201.251C166.843 201.748 166.692 202.525 166.692 203.582ZM175.524 203.233C175.524 202.509 175.666 201.857 175.948 201.278C176.235 200.7 176.632 200.253 177.138 199.938C177.648 199.624 178.229 199.467 178.881 199.467C179.888 199.467 180.701 199.815 181.321 200.513C181.946 201.21 182.258 202.137 182.258 203.295V203.384C182.258 204.104 182.119 204.751 181.841 205.325C181.567 205.895 181.173 206.339 180.658 206.658C180.148 206.977 179.56 207.137 178.895 207.137C177.892 207.137 177.078 206.788 176.454 206.091C175.834 205.394 175.524 204.471 175.524 203.322V203.233ZM176.796 203.384C176.796 204.204 176.985 204.863 177.363 205.359C177.746 205.856 178.257 206.104 178.895 206.104C179.537 206.104 180.048 205.854 180.426 205.353C180.804 204.847 180.993 204.14 180.993 203.233C180.993 202.422 180.799 201.766 180.412 201.265C180.029 200.759 179.519 200.506 178.881 200.506C178.257 200.506 177.753 200.754 177.37 201.251C176.987 201.748 176.796 202.459 176.796 203.384ZM189.189 200.629H186.708V207H185.443V200.629H183.01V199.604H189.189V200.629ZM189.798 203.233C189.798 202.509 189.939 201.857 190.222 201.278C190.509 200.7 190.905 200.253 191.411 199.938C191.922 199.624 192.503 199.467 193.154 199.467C194.161 199.467 194.975 199.815 195.595 200.513C196.219 201.21 196.531 202.137 196.531 203.295V203.384C196.531 204.104 196.392 204.751 196.114 205.325C195.841 205.895 195.447 206.339 194.932 206.658C194.421 206.977 193.833 207.137 193.168 207.137C192.165 207.137 191.352 206.788 190.728 206.091C190.108 205.394 189.798 204.471 189.798 203.322V203.233ZM191.069 203.384C191.069 204.204 191.258 204.863 191.637 205.359C192.02 205.856 192.53 206.104 193.168 206.104C193.811 206.104 194.321 205.854 194.699 205.353C195.077 204.847 195.267 204.14 195.267 203.233C195.267 202.422 195.073 201.766 194.686 201.265C194.303 200.759 193.792 200.506 193.154 200.506C192.53 200.506 192.026 200.754 191.644 201.251C191.261 201.748 191.069 202.459 191.069 203.384Z" fill="white"/>
</svg>
