<svg width="44" height="44" viewBox="0 0 44 44" fill="none" xmlns="http://www.w3.org/2000/svg">
<path fill-rule="evenodd" clip-rule="evenodd" d="M8.63281 0C3.86719 0 0 3.86719 0 8.63281V35.3672C0 40.1328 3.86719 44 8.63281 44H35.3672C40.1328 44 44 40.1328 44 35.3672V8.63281C44 3.86719 40.1328 0 35.3672 0H8.63281ZM9.35156 3.75H34.6484C37.6016 3.75 40 6.14844 40 9.10156V34.6484C40 37.6016 37.6016 40 34.6484 40H9.35156C6.39844 40 4 37.6016 4 34.6484V9.10156C4 6.14844 6.39844 3.75 9.35156 3.75ZM14 10L11.2812 10.0625C11.2812 10.0625 10.6875 13.2344 8 13.8984C8 13.8984 8.17188 15.2969 8.32813 16.3047C9.99219 15.9531 10.4844 15.625 11.2422 14.6641L11.2812 33.9844L14 34V10ZM28.0156 10C22.9688 10 20 14.7188 20 21.9922C20 29.3359 22.9375 34 28.0156 34C33.0781 34 36 29.3203 36 21.9766C36 14.6875 33.0625 10 28.0156 10ZM28.1875 12.5469C31.5469 12.5469 33.2734 16.2812 33.2734 21.9922C33.2734 27.7891 31.4062 31.3047 28.0156 31.3047C24.6094 31.3047 22.7266 27.7734 22.7266 21.9766C22.7266 16.3125 24.8203 12.5469 28.1875 12.5469Z" fill="#BDBDBD"/>
</svg>
