<svg width="30" height="30" viewBox="0 0 30 30" fill="none" xmlns="http://www.w3.org/2000/svg">
<rect width="30" height="30" rx="5" fill="#0075FF"/>
<path d="M24.375 5C24 5 23.75 5.25 23.75 5.625V6.25H21.25V5.625C21.25 5.25 21 5 20.625 5C20.25 5 20 5.25 20 5.625V6.25H17.5V5.625C17.5 5.25 17.25 5 16.875 5C16.5 5 16.25 5.25 16.25 5.625V6.25H13.75V5.625C13.75 5.25 13.5 5 13.125 5C12.75 5 12.5 5.25 12.5 5.625V6.25H10V5.625C10 5.25 9.75 5 9.375 5C9 5 8.75 5.25 8.75 5.625V6.25H6.25V5.625C6.25 5.25 6 5 5.625 5C5.25 5 5 5.25 5 5.625V23.75C5 24.5 5.5 25 6.25 25H23.75C24.5 25 25 24.5 25 23.75V5.625C25 5.25 24.75 5 24.375 5ZM11.25 22.5H6.25V18.75H11.25V22.5ZM11.25 17.5H6.25V13.75H11.25V17.5ZM17.5 22.5H12.5V18.75H17.5V22.5ZM17.5 17.5H12.5V13.75H17.5V17.5ZM23.75 22.5H18.75V18.75H23.75V22.5ZM23.75 17.5H18.75V13.75H23.75V17.5ZM23.75 11.25H6.25V10H23.75V11.25Z" fill="white"/>
</svg>
