<svg width="32" height="22" viewBox="0 0 32 22" fill="none" xmlns="http://www.w3.org/2000/svg">
<path d="M0 20.1667C0 21.1792 0.820811 22 1.83333 22H30.1667C31.1792 22 32 21.1792 32 20.1667C32 19.1541 31.1792 18.3333 30.1667 18.3333H1.83333C0.820811 18.3333 0 19.1541 0 20.1667ZM1.83333 0C0.82081 0 0 0.820812 0 1.83333C0 2.84586 0.820811 3.66667 1.83333 3.66667H30.1667C31.1792 3.66667 32 2.84586 32 1.83333C32 0.820812 31.1792 0 30.1667 0H1.83333ZM0 11C0 12.0125 0.820811 12.8333 1.83333 12.8333H30.1667C31.1792 12.8333 32 12.0125 32 11C32 9.98748 31.1792 9.16667 30.1667 9.16667H1.83333C0.82081 9.16667 0 9.98748 0 11Z" fill="white"/>
</svg>
