<svg width="44" height="44" viewBox="0 0 44 44" fill="none" xmlns="http://www.w3.org/2000/svg">
<path d="M27.1878 23.8335C26.1852 23.8335 25.3755 24.6551 25.3755 25.6666V33.0006C25.3755 34.0104 24.5633 34.8337 23.5624 34.8337H18.1249V7.33319C18.1249 5.76738 17.1385 4.36829 15.6568 3.84836L15.1198 3.66702H23.5624C24.5633 3.66702 25.3755 4.49032 25.3755 5.50097V11.0011C25.3755 12.0126 26.1861 12.8342 27.1878 12.8342C28.1895 12.8342 29 12.0126 29 11.0011V5.50011C29 2.46817 26.5607 0 23.5624 0H4.07817C4.00935 0 3.95157 0.0309381 3.88445 0.0403914C3.79694 0.0326569 3.71368 0 3.62532 0C1.62617 0 0 1.64402 0 3.66617V36.6668C0 38.2326 0.986406 39.6317 2.46814 40.1516L13.3764 43.8298C13.746 43.945 14.1138 44 14.5004 44C16.4996 44 18.1249 42.3551 18.1249 40.333V38.5008H23.5624C26.5599 38.5008 29 36.0334 29 33.0006V25.6666C29 24.6551 28.1895 23.8335 27.1878 23.8335Z" fill="white"/>
<path d="M43.4668 17.1571L36.1935 9.55722C35.6736 9.01393 34.8921 8.85005 34.212 9.14485C33.5344 9.43877 33.0912 10.1326 33.0912 10.9003V16.6005H25.8188C24.8148 16.6005 24 17.451 24 18.5002C24 19.5494 24.8148 20.3999 25.8188 20.3999H33.0912V26.1001C33.0912 26.8678 33.5352 27.5616 34.2128 27.8555C34.8929 28.1495 35.6745 27.9865 36.1943 27.4432L43.4676 19.8424C44.1776 19.1005 44.1776 17.8999 43.4668 17.1571Z" fill="white"/>
</svg>
