<svg width="44" height="28" viewBox="0 0 44 28" fill="none" xmlns="http://www.w3.org/2000/svg">
<path d="M14 0C6.26563 0 0 6.26563 0 14C0 21.7344 6.26563 28 14 28C16.9844 28 19.7266 27.0859 22 25.5C24.2734 27.0938 27.0312 28 30 28C37.7109 28 44 21.7109 44 14C44 6.28906 37.7109 0 30 0C27.0312 0 24.2734 0.90625 22 2.5C19.7266 0.914062 16.9844 0 14 0ZM30 4C35.5469 4 40 8.45313 40 14C40 19.5469 35.5469 24 30 24C28.1641 24 26.4688 23.4766 25 22.625C26.875 20.2422 28 17.2734 28 14C28 10.7266 26.875 7.75781 25 5.375C26.4688 4.52344 28.1641 4 30 4Z" fill="#BDBDBD"/>
</svg>
